<svg width="140" height="29" viewBox="0 0 140 29" fill="none" xmlns="http://www.w3.org/2000/svg">
<path d="M13.0767 5.19063C13.4183 4.36934 14.5817 4.36934 14.9233 5.19063L16.9395 10.0381C17.0835 10.3843 17.4091 10.6209 17.7829 10.6508L23.0161 11.0704C23.9027 11.1414 24.2623 12.248 23.5867 12.8266L19.5996 16.242C19.3148 16.486 19.1904 16.8688 19.2774 17.2335L20.4956 22.3402C20.702 23.2055 19.7607 23.8893 19.0016 23.4257L14.5213 20.6891C14.2012 20.4936 13.7988 20.4936 13.4787 20.6891L8.9984 23.4257C8.2393 23.8893 7.29805 23.2055 7.50444 22.3402L8.72257 17.2335C8.80958 16.8688 8.68521 16.486 8.40042 16.242L4.41328 12.8266C3.73774 12.248 4.09727 11.1414 4.98392 11.0704L10.2171 10.6508C10.5909 10.6209 10.9165 10.3843 11.0605 10.0381L13.0767 5.19063Z" fill="#F7931A"/>
<path d="M41.0767 5.19063C41.4183 4.36934 42.5817 4.36934 42.9233 5.19063L44.9395 10.0381C45.0835 10.3843 45.4091 10.6209 45.7829 10.6508L51.0161 11.0704C51.9027 11.1414 52.2623 12.248 51.5867 12.8266L47.5996 16.242C47.3148 16.486 47.1904 16.8688 47.2774 17.2335L48.4956 22.3402C48.702 23.2055 47.7607 23.8893 47.0016 23.4257L42.5213 20.6891C42.2012 20.4936 41.7988 20.4936 41.4787 20.6891L36.9984 23.4257C36.2393 23.8893 35.298 23.2055 35.5044 22.3402L36.7226 17.2335C36.8096 16.8688 36.6852 16.486 36.4004 16.242L32.4133 12.8266C31.7377 12.248 32.0973 11.1414 32.9839 11.0704L38.2171 10.6508C38.5909 10.6209 38.9165 10.3843 39.0605 10.0381L41.0767 5.19063Z" fill="#F7931A"/>
<path d="M69.0767 5.19063C69.4183 4.36934 70.5817 4.36934 70.9233 5.19063L72.9395 10.0381C73.0835 10.3843 73.4091 10.6209 73.7829 10.6508L79.0161 11.0704C79.9027 11.1414 80.2623 12.248 79.5867 12.8266L75.5996 16.242C75.3148 16.486 75.1904 16.8688 75.2774 17.2335L76.4956 22.3402C76.702 23.2055 75.7607 23.8893 75.0016 23.4257L70.5213 20.6891C70.2012 20.4936 69.7988 20.4936 69.4787 20.6891L64.9984 23.4257C64.2393 23.8893 63.298 23.2055 63.5044 22.3402L64.7226 17.2335C64.8096 16.8688 64.6852 16.486 64.4004 16.242L60.4133 12.8266C59.7377 12.248 60.0973 11.1414 60.9839 11.0704L66.2171 10.6508C66.5909 10.6209 66.9165 10.3843 67.0605 10.0381L69.0767 5.19063Z" fill="#F7931A"/>
<path d="M97.0767 5.19063C97.4183 4.36934 98.5817 4.36934 98.9233 5.19063L100.939 10.0381C101.083 10.3843 101.409 10.6209 101.783 10.6508L107.016 11.0704C107.903 11.1414 108.262 12.248 107.587 12.8266L103.6 16.242C103.315 16.486 103.19 16.8688 103.277 17.2335L104.496 22.3402C104.702 23.2055 103.761 23.8893 103.002 23.4257L98.5213 20.6891C98.2012 20.4936 97.7988 20.4936 97.4787 20.6891L92.9984 23.4257C92.2393 23.8893 91.298 23.2055 91.5044 22.3402L92.7226 17.2335C92.8096 16.8688 92.6852 16.486 92.4004 16.242L88.4133 12.8266C87.7377 12.248 88.0973 11.1414 88.9839 11.0704L94.2171 10.6508C94.5909 10.6209 94.9165 10.3843 95.0605 10.0381L97.0767 5.19063Z" fill="#F7931A"/>
<path d="M125.077 5.19063C125.418 4.36934 126.582 4.36934 126.923 5.19063L128.939 10.0381C129.083 10.3843 129.409 10.6209 129.783 10.6508L135.016 11.0704C135.903 11.1414 136.262 12.248 135.587 12.8266L131.6 16.242C131.315 16.486 131.19 16.8688 131.277 17.2335L132.496 22.3402C132.702 23.2055 131.761 23.8893 131.002 23.4257L126.521 20.6891C126.201 20.4936 125.799 20.4936 125.479 20.6891L120.998 23.4257C120.239 23.8893 119.298 23.2055 119.504 22.3402L120.723 17.2335C120.81 16.8688 120.685 16.486 120.4 16.242L116.413 12.8266C115.738 12.248 116.097 11.1414 116.984 11.0704L122.217 10.6508C122.591 10.6209 122.917 10.3843 123.061 10.0381L125.077 5.19063Z" fill="#F7931A"/>
</svg>
